<?xml version="1.0" standalone="no"?>
<!DOCTYPE svg PUBLIC "-//W3C//DTD SVG 20010904//EN"
 "http://www.w3.org/TR/2001/REC-SVG-20010904/DTD/svg10.dtd">
<svg version="1.0" xmlns="http://www.w3.org/2000/svg"
 width="389.000000pt" height="389.000000pt" viewBox="0 0 389.000000 389.000000"
 preserveAspectRatio="xMidYMid meet">
<metadata>
Created by potrace 1.14, written by Peter Selinger 2001-2017
</metadata>
<g transform="translate(0.000000,389.000000) scale(0.100000,-0.100000)"
fill="#000000" stroke="none">
<path d="M3208 2803 c6 -2 18 -2 25 0 6 3 1 5 -13 5 -14 0 -19 -2 -12 -5z"/>
<path d="M3048 2793 c6 -2 18 -2 25 0 6 3 1 5 -13 5 -14 0 -19 -2 -12 -5z"/>
<path d="M2898 2783 c7 -3 16 -2 19 1 4 3 -2 6 -13 5 -11 0 -14 -3 -6 -6z"/>
<path d="M3391 2694 c0 -11 3 -14 6 -6 3 7 2 16 -1 19 -3 4 -6 -2 -5 -13z"/>
<path d="M598 2643 c7 -3 16 -2 19 1 4 3 -2 6 -13 5 -11 0 -14 -3 -6 -6z"/>
<path d="M2841 2634 c0 -11 3 -14 6 -6 3 7 2 16 -1 19 -3 4 -6 -2 -5 -13z"/>
<path d="M3125 2633 c-38 -2 -79 -5 -90 -8 -20 -4 -20 -6 17 -587 20 -321 37
-587 38 -592 0 -8 208 -1 216 7 1 1 -6 132 -17 291 -12 189 -15 293 -9 301 5
7 7 14 4 17 -2 3 9 20 26 37 56 55 128 35 149 -43 5 -21 18 -160 27 -310 9
-149 19 -274 23 -277 8 -8 197 4 206 13 4 4 -2 151 -14 328 -16 247 -25 333
-40 377 -11 32 -17 62 -14 68 4 5 3 7 -1 4 -3 -3 -24 11 -45 32 -26 26 -48 39
-65 39 -15 0 -25 4 -22 8 3 5 -27 4 -66 0 -73 -9 -134 -34 -167 -69 l-19 -21
-5 29 c-3 15 -8 82 -12 148 -9 182 -14 215 -33 213 -10 -1 -48 -3 -87 -5z"/>
<path d="M3401 2544 c0 -11 3 -14 6 -6 3 7 2 16 -1 19 -3 4 -6 -2 -5 -13z"/>
<path d="M3443 2503 c15 -2 39 -2 55 0 15 2 2 4 -28 4 -30 0 -43 -2 -27 -4z"/>
<path d="M2847 2481 c-4 -17 -3 -21 5 -13 5 5 8 16 6 23 -3 8 -7 3 -11 -10z"/>
<path d="M350 2465 c-52 -8 -113 -17 -135 -22 l-39 -9 3 -54 c12 -243 71
-1114 76 -1119 12 -11 339 -5 398 8 91 20 162 57 209 110 58 64 80 130 80 233
0 154 -63 258 -176 295 l-30 9 37 23 c20 12 44 35 54 51 9 16 21 26 26 23 6
-3 7 -2 4 4 -3 5 1 32 9 59 11 34 14 74 11 131 -13 229 -173 307 -527 258z
m263 -223 c30 -31 32 -36 32 -108 0 -60 -4 -78 -17 -88 -10 -7 -15 -16 -12
-19 3 -3 -11 -17 -33 -30 -38 -25 -137 -46 -146 -30 -3 4 -8 74 -12 155 l-7
146 23 5 c13 3 50 4 82 3 50 -2 62 -7 90 -34z m17 -475 c46 -23 70 -73 70
-144 0 -111 -54 -163 -168 -163 l-60 0 -6 38 c-3 20 -8 92 -12 160 l-6 122 78
0 c44 0 90 -6 104 -13z"/>
<path d="M2 2450 c0 -14 2 -19 5 -12 2 6 2 18 0 25 -3 6 -5 1 -5 -13z"/>
<path d="M3670 2445 c0 -2 10 -10 23 -16 20 -11 21 -11 8 4 -13 16 -31 23 -31
12z"/>
<path d="M2440 2355 c-11 -13 -10 -14 4 -9 9 3 16 10 16 15 0 13 -6 11 -20 -6z"/>
<path d="M2394 2308 l-19 -23 23 19 c21 18 27 26 19 26 -2 0 -12 -10 -23 -22z"/>
<path d="M12 2295 c0 -16 2 -22 5 -12 2 9 2 23 0 30 -3 6 -5 -1 -5 -18z"/>
<path d="M2650 2281 c-81 -25 -145 -89 -182 -180 -20 -50 -23 -73 -23 -221 1
-127 5 -180 19 -229 50 -181 133 -253 291 -254 116 -1 245 48 245 92 0 11 -12
52 -26 91 l-27 71 -24 -16 c-28 -19 -52 -26 -110 -32 -39 -5 -46 -2 -77 31
-87 89 -102 349 -25 426 27 27 37 30 90 30 33 0 68 -6 79 -12 27 -17 34 -5 50
76 6 34 14 71 17 83 4 19 -2 24 -48 37 -55 17 -204 20 -249 7z"/>
<path d="M1903 2220 c-39 -10 -90 -28 -113 -40 -34 -17 -41 -26 -37 -43 6 -27
52 -135 60 -144 4 -3 18 2 31 11 34 21 130 46 182 46 52 0 71 -20 84 -90 5
-29 10 -56 10 -60 0 -4 -17 -8 -38 -8 -46 -1 -154 -25 -202 -46 -19 -8 -50
-30 -69 -50 -19 -19 -39 -32 -44 -29 -6 3 -7 1 -4 -4 4 -6 0 -27 -8 -47 -18
-42 -20 -159 -3 -207 42 -121 142 -176 273 -149 47 10 66 20 101 56 l44 44 17
-41 16 -42 85 7 c47 3 87 8 89 10 2 2 -4 32 -12 67 -10 40 -19 155 -25 309 -8
202 -14 258 -31 318 -12 39 -26 72 -31 72 -5 0 -6 5 -2 12 4 6 3 8 -4 4 -6 -3
-15 0 -19 9 -5 8 -26 24 -48 35 -52 27 -200 27 -302 0z m222 -482 c2 -7 6 -38
8 -68 4 -51 2 -57 -28 -87 -57 -57 -131 -35 -142 43 -9 67 47 115 145 123 7 1
14 -5 17 -11z"/>
<path d="M1330 2203 c-152 -18 -236 -78 -284 -203 -26 -65 -36 -190 -25 -300
28 -276 135 -396 350 -394 112 2 279 67 279 109 0 10 -40 96 -67 144 -1 2 -30
-11 -64 -28 -86 -43 -169 -44 -217 -3 -33 28 -78 130 -63 145 4 4 81 12 172
17 244 16 226 10 235 78 9 75 -9 217 -36 281 -12 28 -42 68 -65 90 -24 22 -40
43 -37 47 4 4 1 4 -6 0 -7 -5 -25 -3 -40 2 -31 12 -96 19 -132 15z m74 -223
c26 -31 45 -115 30 -130 -5 -4 -53 -10 -106 -12 l-98 -5 0 28 c0 40 29 111 54
131 12 10 37 18 58 18 28 0 42 -7 62 -30z"/>
<path d="M22 2140 c0 -14 2 -19 5 -12 2 6 2 18 0 25 -3 6 -5 1 -5 -13z"/>
<path d="M3851 2014 c0 -11 3 -14 6 -6 3 7 2 16 -1 19 -3 4 -6 -2 -5 -13z"/>
<path d="M31 1984 c0 -11 3 -14 6 -6 3 7 2 16 -1 19 -3 4 -6 -2 -5 -13z"/>
<path d="M3862 1860 c0 -14 2 -19 5 -12 2 6 2 18 0 25 -3 6 -5 1 -5 -13z"/>
<path d="M41 1824 c0 -11 3 -14 6 -6 3 7 2 16 -1 19 -3 4 -6 -2 -5 -13z"/>
<path d="M3871 1704 c0 -11 3 -14 6 -6 3 7 2 16 -1 19 -3 4 -6 -2 -5 -13z"/>
<path d="M52 1680 c0 -14 2 -19 5 -12 2 6 2 18 0 25 -3 6 -5 1 -5 -13z"/>
<path d="M61 1514 c0 -11 3 -14 6 -6 3 7 2 16 -1 19 -3 4 -6 -2 -5 -13z"/>
<path d="M72 1360 c0 -14 2 -19 5 -12 2 6 2 18 0 25 -3 6 -5 1 -5 -13z"/>
<path d="M970 1255 c-7 -8 -16 -13 -19 -10 -4 2 -8 -3 -8 -11 0 -11 6 -9 24 8
13 12 23 23 23 25 0 7 -8 2 -20 -12z"/>
<path d="M1035 1250 c10 -11 20 -20 23 -20 3 0 -3 9 -13 20 -10 11 -20 20 -23
20 -3 0 3 -9 13 -20z"/>
<path d="M82 1205 c0 -16 2 -22 5 -12 2 9 2 23 0 30 -3 6 -5 -1 -5 -18z"/>
<path d="M1780 1226 c0 -2 9 -6 20 -9 11 -3 18 -1 14 4 -5 9 -34 13 -34 5z"/>
<path d="M387 1083 c18 -2 50 -2 70 0 21 2 7 4 -32 4 -38 0 -55 -2 -38 -4z"/>
</g>
</svg>
